<svg xmlns="http://www.w3.org/2000/svg" viewBox="0 0 400 400" width="400" height="400">
  <defs>
    <radialGradient id="cbg" cx="50%" cy="50%" r="50%">
      <stop offset="0%" stop-color="#6B35A8"/>
      <stop offset="70%" stop-color="#5528A0"/>
      <stop offset="100%" stop-color="#3E1B80"/>
    </radialGradient>
  </defs>
  <!-- Circular background -->
  <circle cx="200" cy="200" r="195" fill="url(#cbg)"/>
  <!-- Subtle shadow ring -->
  <circle cx="200" cy="200" r="195" fill="none" stroke="#2A1260" stroke-width="3" opacity="0.3"/>

  <!-- People group -->
  <!-- Person left (back) -->
  <circle cx="145" cy="140" r="18" fill="white"/>
  <path d="M120 200 C120 175 145 163 145 163 C145 163 170 175 170 200 L170 205 C170 210 165 213 160 213 L130 213 C125 213 120 210 120 205 Z" fill="white"/>

  <!-- Person right (back) -->
  <circle cx="255" cy="140" r="18" fill="white"/>
  <path d="M230 200 C230 175 255 163 255 163 C255 163 280 175 280 200 L280 205 C280 210 275 213 270 213 L240 213 C235 213 230 210 230 205 Z" fill="white"/>

  <!-- Person center (front) -->
  <circle cx="200" cy="130" r="22" fill="white"/>
  <path d="M170 200 C170 170 200 155 200 155 C200 155 230 170 230 200 L230 207 C230 213 224 217 218 217 L182 217 C176 217 170 213 170 207 Z" fill="white"/>

  <!-- Growth arrow -->
  <path d="M175 165 L210 135 L245 150 L280 110" stroke="#E8A020" stroke-width="7" fill="none" stroke-linecap="round" stroke-linejoin="round"/>
  <polygon points="280,110 268,105 272,120" fill="#E8A020"/>

  <!-- Text: DUBAI SYNDICATE -->
  <text x="200" y="280" text-anchor="middle" font-family="Arial, Helvetica, sans-serif" font-size="34" font-weight="900" letter-spacing="3" fill="#E8A020">DUBAI SYNDICATE</text>
</svg>
